<?xml version="1.0" encoding="iso-8859-1"?>
<!-- Generator: Adobe Illustrator 19.0.0, SVG Export Plug-In . SVG Version: 6.00 Build 0)  -->
<svg version="1.1" id="Layer_1" xmlns="http://www.w3.org/2000/svg" xmlns:xlink="http://www.w3.org/1999/xlink" x="0px" y="0px"
	 viewBox="0 0 512 512" style="enable-background:new 0 0 512 512;" xml:space="preserve">
<circle style="fill:#324A5E;" cx="256" cy="256" r="256"/>
<path style="fill:#2B3B4E;" d="M307.878,506.699c47.323-9.747,92.424-32.961,129.143-69.68
	c39.727-39.727,63.65-89.264,71.804-140.812L368.992,156.82l-12.033,9.931l-95.211-95.21c-0.862,0.862-11.493,51.717-11.493,51.717
	l68.917,68.917l-17.486,8.947h0.574c0,0-192.217,50.352-193.653,50.352l99.966,99.966c-2.034,20.821-4.863,49.986-4.863,51.091
	L307.878,506.699z"/>
<path style="fill:#B5F1F4;" d="M230.402,415.073c-17.92,0-32.497-14.577-32.497-32.497v-25.6c0-3.808,3.088-6.896,6.896-6.896
	s6.896,3.087,6.896,6.896v25.6c0,10.314,8.39,18.706,18.706,18.706c10.312,0,18.704-8.39,18.704-18.706v-307.2
	c0-3.808,3.088-6.896,6.896-6.896c3.808,0,6.896,3.088,6.896,6.896v307.2C262.897,400.496,248.318,415.073,230.402,415.073z"/>
<path style="fill:#84DBFF;" d="M262.897,75.378c0-3.808-3.087-6.896-6.896-6.896c-0.197,0-0.381,0.041-0.574,0.059v334.741
	c4.661-5.627,7.47-12.843,7.47-20.704V75.378z"/>
<path style="fill:#FD8469;" d="M108.608,251.475h146.82v-147.38C174.289,104.407,108.608,170.263,108.608,251.475z"/>
<g>
	<path style="fill:#FC6F58;" d="M256.002,104.081c-0.193,0-0.381,0.014-0.574,0.014v147.38h147.968
		C403.396,170.072,337.405,104.081,256.002,104.081z"/>
	<path style="fill:#FC6F58;" d="M179.202,251.475c0-81.403,34.385-147.394,76.8-147.394s76.8,65.991,76.8,147.394H179.202z"/>
</g>
<path style="fill:#F1543F;" d="M256.002,104.081c-0.193,0-0.381,0.026-0.574,0.028v147.366h77.374
	C332.802,170.072,298.417,104.081,256.002,104.081z"/>
<g>
</g>
<g>
</g>
<g>
</g>
<g>
</g>
<g>
</g>
<g>
</g>
<g>
</g>
<g>
</g>
<g>
</g>
<g>
</g>
<g>
</g>
<g>
</g>
<g>
</g>
<g>
</g>
<g>
</g>
</svg>
